<?xml version="1.0" standalone="no"?>
<svg xmlns:xlink="http://www.w3.org/1999/xlink" id="wave" style="transform:rotate(180deg); transition: 0.3s" viewBox="0 0 1440 490" version="1.1" xmlns="http://www.w3.org/2000/svg"><defs><linearGradient id="sw-gradient-0" x1="0" x2="0" y1="1" y2="0"><stop stop-color="rgba(31, 31, 31, 1)" offset="0%"/><stop stop-color="rgba(31, 31, 31, 0.5019607843137255)" offset="100%"/></linearGradient></defs><path style="transform:translate(0, 0px); opacity:1" fill="url(#sw-gradient-0)" d="M0,0L80,24.5C160,49,320,98,480,98C640,98,800,49,960,40.8C1120,33,1280,65,1440,73.5C1600,82,1760,65,1920,106.2C2080,147,2240,245,2400,253.2C2560,261,2720,180,2880,196C3040,212,3200,327,3360,367.5C3520,408,3680,376,3840,359.3C4000,343,4160,343,4320,334.8C4480,327,4640,310,4800,318.5C4960,327,5120,359,5280,310.3C5440,261,5600,131,5760,98C5920,65,6080,131,6240,138.8C6400,147,6560,98,6720,130.7C6880,163,7040,278,7200,277.7C7360,278,7520,163,7680,106.2C7840,49,8000,49,8160,40.8C8320,33,8480,16,8640,65.3C8800,114,8960,229,9120,269.5C9280,310,9440,278,9600,228.7C9760,180,9920,114,10080,130.7C10240,147,10400,245,10560,310.3C10720,376,10880,408,11040,400.2C11200,392,11360,343,11440,318.5L11520,294L11520,490L11440,490C11360,490,11200,490,11040,490C10880,490,10720,490,10560,490C10400,490,10240,490,10080,490C9920,490,9760,490,9600,490C9440,490,9280,490,9120,490C8960,490,8800,490,8640,490C8480,490,8320,490,8160,490C8000,490,7840,490,7680,490C7520,490,7360,490,7200,490C7040,490,6880,490,6720,490C6560,490,6400,490,6240,490C6080,490,5920,490,5760,490C5600,490,5440,490,5280,490C5120,490,4960,490,4800,490C4640,490,4480,490,4320,490C4160,490,4000,490,3840,490C3680,490,3520,490,3360,490C3200,490,3040,490,2880,490C2720,490,2560,490,2400,490C2240,490,2080,490,1920,490C1760,490,1600,490,1440,490C1280,490,1120,490,960,490C800,490,640,490,480,490C320,490,160,490,80,490L0,490Z"/><defs><linearGradient id="sw-gradient-1" x1="0" x2="0" y1="1" y2="0"><stop stop-color="rgba(230, 230, 230, 1)" offset="0%"/><stop stop-color="rgba(230, 230, 230, 0.5019607843137255)" offset="100%"/></linearGradient></defs><path style="transform:translate(0, 50px); opacity:0.9" fill="url(#sw-gradient-1)" d="M0,441L80,383.8C160,327,320,212,480,138.8C640,65,800,33,960,73.5C1120,114,1280,229,1440,253.2C1600,278,1760,212,1920,171.5C2080,131,2240,114,2400,98C2560,82,2720,65,2880,57.2C3040,49,3200,49,3360,73.5C3520,98,3680,147,3840,138.8C4000,131,4160,65,4320,98C4480,131,4640,261,4800,277.7C4960,294,5120,196,5280,196C5440,196,5600,294,5760,351.2C5920,408,6080,425,6240,367.5C6400,310,6560,180,6720,163.3C6880,147,7040,245,7200,236.8C7360,229,7520,114,7680,65.3C7840,16,8000,33,8160,32.7C8320,33,8480,16,8640,57.2C8800,98,8960,196,9120,236.8C9280,278,9440,261,9600,245C9760,229,9920,212,10080,245C10240,278,10400,359,10560,334.8C10720,310,10880,180,11040,179.7C11200,180,11360,310,11440,375.7L11520,441L11520,490L11440,490C11360,490,11200,490,11040,490C10880,490,10720,490,10560,490C10400,490,10240,490,10080,490C9920,490,9760,490,9600,490C9440,490,9280,490,9120,490C8960,490,8800,490,8640,490C8480,490,8320,490,8160,490C8000,490,7840,490,7680,490C7520,490,7360,490,7200,490C7040,490,6880,490,6720,490C6560,490,6400,490,6240,490C6080,490,5920,490,5760,490C5600,490,5440,490,5280,490C5120,490,4960,490,4800,490C4640,490,4480,490,4320,490C4160,490,4000,490,3840,490C3680,490,3520,490,3360,490C3200,490,3040,490,2880,490C2720,490,2560,490,2400,490C2240,490,2080,490,1920,490C1760,490,1600,490,1440,490C1280,490,1120,490,960,490C800,490,640,490,480,490C320,490,160,490,80,490L0,490Z"/><defs><linearGradient id="sw-gradient-2" x1="0" x2="0" y1="1" y2="0"><stop stop-color="rgba(31, 31, 31, 1)" offset="0%"/><stop stop-color="rgba(31, 31, 31, 0.5019607843137255)" offset="100%"/></linearGradient></defs><path style="transform:translate(0, 100px); opacity:0.8" fill="url(#sw-gradient-2)" d="M0,49L80,114.3C160,180,320,310,480,310.3C640,310,800,180,960,138.8C1120,98,1280,147,1440,171.5C1600,196,1760,196,1920,236.8C2080,278,2240,359,2400,334.8C2560,310,2720,180,2880,171.5C3040,163,3200,278,3360,318.5C3520,359,3680,327,3840,294C4000,261,4160,229,4320,204.2C4480,180,4640,163,4800,204.2C4960,245,5120,343,5280,392C5440,441,5600,441,5760,432.8C5920,425,6080,408,6240,351.2C6400,294,6560,196,6720,187.8C6880,180,7040,261,7200,310.3C7360,359,7520,376,7680,359.3C7840,343,8000,294,8160,302.2C8320,310,8480,376,8640,367.5C8800,359,8960,278,9120,204.2C9280,131,9440,65,9600,73.5C9760,82,9920,163,10080,163.3C10240,163,10400,82,10560,89.8C10720,98,10880,196,11040,245C11200,294,11360,294,11440,294L11520,294L11520,490L11440,490C11360,490,11200,490,11040,490C10880,490,10720,490,10560,490C10400,490,10240,490,10080,490C9920,490,9760,490,9600,490C9440,490,9280,490,9120,490C8960,490,8800,490,8640,490C8480,490,8320,490,8160,490C8000,490,7840,490,7680,490C7520,490,7360,490,7200,490C7040,490,6880,490,6720,490C6560,490,6400,490,6240,490C6080,490,5920,490,5760,490C5600,490,5440,490,5280,490C5120,490,4960,490,4800,490C4640,490,4480,490,4320,490C4160,490,4000,490,3840,490C3680,490,3520,490,3360,490C3200,490,3040,490,2880,490C2720,490,2560,490,2400,490C2240,490,2080,490,1920,490C1760,490,1600,490,1440,490C1280,490,1120,490,960,490C800,490,640,490,480,490C320,490,160,490,80,490L0,490Z"/></svg>