<svg width="160" height="160" viewBox="0 0 1487 1487" fill="none" xmlns="http://www.w3.org/2000/svg">
<!-- Designed by Vexels.com - 2020 All Rights Reserved - https://vexels.com/terms-and-conditions/  -->
<g>
<path d="M518.997 873.359C615.067 983.736 701.237 1100.57 757.619 1239.03C756.085 1200.56 755.077 1162.07 752.875 1123.65C750.512 1082.41 748.116 1041.12 743.681 1000.08C740.281 968.629 733.203 937.59 728.744 906.226C726.764 892.3 727.695 877.987 726.456 863.924C723.21 827.062 719.523 790.24 715.938 753.408C715.442 748.31 712.904 742.847 714.054 738.238C723.959 698.546 711.012 660.375 707.156 621.599C703.509 584.926 700.986 548.136 697.035 511.499C691.967 464.502 686.362 417.556 680.264 370.682C673.735 320.483 667.188 270.261 659.111 220.297C652.024 176.452 642.703 132.971 634.632 89.2799C633.15 81.2582 631.553 72.8526 632.429 64.8903C633.968 50.9122 642.787 42.6125 657.042 41.336C671.392 40.0508 677.579 49.7533 680.602 61.3896C685.811 81.4418 689.85 101.794 694.687 121.947C696.464 129.352 699.115 136.547 706.655 142.789C707.483 129.869 708.294 116.948 709.148 104.029C709.626 96.7988 709.573 89.4686 710.807 82.3656C714.353 61.9448 723.522 52.2837 737.4 54.6262C754.194 57.4608 753.043 71.9136 754.453 83.8264C756.025 97.0869 756.143 110.514 757.048 123.859C759.709 163.129 766.694 201.608 775.777 239.936C780.197 258.587 777.431 278.25 776.447 297.758C774.569 334.992 782.193 372.679 785.525 410.209C789.611 456.235 793.4 502.288 797.201 548.339C799.146 571.896 800.935 595.467 802.582 619.046C803.002 625.052 803.394 631.24 802.45 637.129C799.092 658.101 790.213 679.2 805.424 699.284C805.948 699.976 805.807 701.337 805.666 702.342C800.312 740.736 807.146 778.507 811.138 816.46C812.425 828.693 811.418 841.151 812.228 853.456C813.781 877.065 815.947 900.083 811.152 924.217C807.412 943.039 813.17 963.75 814.708 983.621C817.33 983.867 819.952 984.113 822.573 984.359C826.609 966.324 830.459 948.245 834.758 930.272C836.888 921.368 837.113 909.653 842.905 904.392C866.433 883.025 869.351 852.292 882.302 826.216C904.205 782.114 928.209 739.048 951.643 695.717C960.852 678.689 970.298 661.729 980.763 645.464C989.378 632.073 1001.48 622.395 1018.3 621.171C1034.24 620.01 1041.94 629.917 1035.67 644.502C1021.48 677.519 1005.78 709.903 992.185 743.154C981.504 769.274 973.508 796.48 963.472 822.88C954.326 846.94 946.382 871.903 933.725 894.081C913.085 930.248 896.686 966.414 893.29 1009.13C890.713 1041.55 880.292 1073.36 873.063 1105.38C867.676 1129.24 861.604 1152.95 856.335 1176.83C855.287 1181.58 856.268 1186.85 856.722 1191.84C857.621 1201.73 860.39 1211.73 859.553 1221.44C857.635 1243.69 854.015 1265.8 851.081 1287.96C850.945 1288.99 850.904 1290.06 850.548 1291.02C829.74 1346.94 829.815 1407.98 808.169 1463.69C805.615 1470.26 802.732 1476.71 798.842 1485.98C793.022 1480.16 786.804 1476.86 785.493 1472.18C770.225 1417.73 755.841 1363.14 738.557 1309.15C727.281 1273.92 713.246 1240.35 699.324 1206.51C685.203 1172.18 668.219 1139.01 654.609 1104.49C635.231 1055.35 599.339 1017.15 571.075 973.93C553.07 946.4 532.505 920.553 513.809 893.453C510.661 888.89 511.177 881.8 509.999 875.878C512.998 875.038 515.997 874.199 518.997 873.359Z" fill="#C7631C"/>
<path d="M485.953 938.083C522.192 941.618 549.842 972.477 546.883 1018.12C531.179 994.574 520.798 977.895 509.228 962.086C502.602 953.034 494.043 945.399 486.354 937.126L485.953 938.083Z" fill="#C7631C"/>
<path d="M420.124 842.895C427.045 851.021 433.966 859.149 440.886 867.276C437.97 869.714 435.055 872.151 432.139 874.589C425.553 866.209 418.968 857.831 412.383 849.45C414.965 847.264 417.545 845.079 420.124 842.895Z" fill="#C7631C"/>
<path d="M486.353 937.124C475.013 925.785 463.674 914.445 452.335 903.107C455.407 900.865 458.48 898.622 461.552 896.381C469.731 910.12 477.91 923.861 486.021 937.842C485.953 938.083 486.353 937.124 486.353 937.124Z" fill="#C7631C"/>
<path d="M380.913 798.641C387.751 806.575 394.59 814.51 401.427 822.444C398.83 824.417 396.232 826.39 393.635 828.362C388.097 819.495 382.558 810.629 377.018 801.762C378.316 800.722 379.615 799.681 380.913 798.641Z" fill="#C7631C"/>
</g>
</svg>
