<svg width="160" height="160" viewBox="0 0 399 1100" fill="none" xmlns="http://www.w3.org/2000/svg">
<path d="M253.684 917.291C238.035 932.368 223.595 949.013 206.489 962.198C169.62 990.615 131.379 1017.25 91.0577 1046.54C91.3897 1039.66 91.5706 1035.89 91.7496 1032.17C75.4106 1033.2 21.6887 1075.9 7.53467 1100C-0.427331 1090.6 -2.89236 1082.54 4.12464 1070.75C9.50964 1061.7 11.6706 1050.17 13.1276 1039.45C17.6446 1006.21 21.3226 972.857 24.8306 939.496C25.3296 934.752 24.6417 928.354 21.7887 925.102C15.5967 918.041 34.3817 916.782 24.4287 908.733C21.1597 906.09 22.0516 897.373 22.3227 891.493C22.7607 882.017 24.6957 872.611 25.1647 863.135C25.4857 856.651 21.8817 845.77 24.3657 844.33C34.5317 838.436 25.1317 833.618 25.2937 828.564C25.7507 814.22 25.6177 799.76 27.4937 785.58C30.7607 760.897 27.8337 736.231 28.7497 711.565C29.6977 686.015 28.9607 660.403 28.9607 634.225C32.6327 632.637 36.5277 630.952 41.2387 628.915C44.7237 638.429 44.8797 648.974 53.9787 655.63C56.0207 657.124 54.2787 663.791 54.2787 668.657C77.7667 688.383 87.5217 716.611 95.3037 745.578C97.6997 754.496 99.2397 762.45 107.546 768.418C111.432 771.21 113.468 777.826 114.462 783.066C115.624 789.19 114.734 795.703 114.734 803.261C118.467 801.289 122.708 800.39 124.729 797.776C147.701 768.053 174.735 741.721 191.646 707.002C210.052 669.214 232.573 633.438 252.971 596.603C255.656 591.754 256.106 585.719 258.087 580.418C267.52 555.168 279.034 530.517 286.276 504.664C302.185 447.873 316.802 390.768 320.595 331.324C321.298 320.31 318.71 312.171 316.452 302.463C312.864 287.036 312.681 270.824 310.915 254.96C310.472 250.976 308.64 246.993 308.914 243.113C309.708 231.893 296.22 220.49 309.238 209.242C309.832 208.729 306.789 204.858 306.645 202.478C306.254 196.002 306.511 189.486 306.511 180.635C322.398 188.002 319.496 203.308 328.03 212.152C330.978 183.273 310.88 158.265 312.2 127.444C302.774 123.15 302.677 109.197 297.11 98.5541C293.385 91.4331 290.954 83.6291 288.052 76.0901C287.375 74.3311 286.303 72.12 286.822 70.598C293.762 50.241 280.137 34.122 275.912 16.086C274.91 11.808 274.813 7.31702 274.318 3.07702C288.34 -3.20598 296.275 -0.0259775 302.422 14.082C310.207 31.951 319.356 49.011 331.413 64.431C333.358 66.918 334.895 69.8591 336.041 72.8151C346.21 99.0441 357.407 124.953 365.987 151.698C373.962 176.554 380.123 202.116 385.22 227.738C390.701 255.29 394.475 283.215 398.03 311.101C399.312 321.161 397.947 331.585 397.528 341.832C396.504 366.879 396.672 392.075 393.802 416.915C391.345 438.183 390.324 459.852 378.831 479.732C372.465 490.742 372.7 505.365 368.374 517.808C362.723 534.062 355.407 549.731 348.987 565.725C344.235 577.564 340.652 589.958 334.98 601.323C325.073 621.171 313.683 640.273 303.432 659.957C293.479 679.07 285.04 699.013 274.389 717.711C257.361 747.605 239.027 776.755 221.348 806.281C220.125 808.324 219.757 810.88 218.001 816.194C225.849 815.761 231.856 816.18 237.53 814.996C276.249 806.919 314.891 798.47 353.578 790.233C360.333 788.795 367.643 786.092 372.316 796.172C359.383 815.916 345.531 835.207 327.243 851.55C305.614 870.878 285.614 892.021 264.614 912.068C261.654 914.893 257.025 915.969 253.139 917.892C252.01 909.688 245.919 908.555 240.4 911.329C232.969 915.064 220.92 915.871 223.207 929.184C233.82 925.042 243.752 921.166 253.684 917.291ZM124.348 917.95C127.763 917.034 147.976 906.412 149.762 904.371C160.97 891.569 172.179 878.766 183.207 865.81C184.25 864.585 184.043 862.295 185.12 857.121C170.096 863.594 155.58 868.333 146.578 878.767C136.948 889.93 131.819 904.976 124.748 918.354C108.93 936.288 105.679 942.271 106.517 951.92C121.579 945.384 121.71 931.009 124.348 917.95ZM123.178 1006.99C142.476 1000.39 156.01 984.94 172.532 974.148C201.29 955.364 212.635 944.209 215.654 932.399C182.47 956.518 150.316 978.421 123.178 1006.99ZM229.663 835.577C237.431 838.632 244.23 841.306 251.607 844.208C256.588 838.293 261.074 832.965 265.56 827.637C264.827 826.071 264.094 824.506 263.361 822.94C253.99 832.798 239.731 820.568 229.663 835.577ZM70.4227 805.642C87.1397 789.827 87.8157 784.024 73.8257 769.799C70.8137 782.095 68.3427 792.947 70.4227 805.642ZM326.725 402.882C337.088 392.052 337.574 382.343 331.218 358.898C329.461 376.096 328.093 389.489 326.725 402.882ZM43.3777 688.737C42.4447 703.162 41.6827 714.936 40.7357 729.564C43.3707 720.058 45.2257 713.434 47.0387 706.798C48.5677 701.205 57.0117 695.031 43.3777 688.737ZM68.2007 888.012C66.5437 887.505 64.8877 886.999 63.2307 886.492C61.9047 891.21 60.5777 895.928 59.2517 900.645C60.6317 901.078 62.0117 901.51 63.3917 901.943C64.9947 897.3 66.5977 892.656 68.2007 888.012ZM19.2167 1046.34C20.7427 1046.75 22.2676 1047.16 23.7936 1047.58C31.5686 1041.64 28.5497 1034.02 24.4647 1026.08C22.7157 1032.83 20.9657 1039.59 19.2167 1046.34ZM312.04 821.506C320.749 821.477 320.749 821.477 326.99 815.219C316.541 814.772 316.541 814.772 312.04 821.506ZM299.182 528.464C299.889 528.371 300.597 528.278 301.304 528.185C302.207 523.828 303.11 519.472 304.013 515.115C303.119 514.982 302.226 514.849 301.332 514.716C300.615 519.299 299.898 523.881 299.182 528.464ZM78.3057 851.443C77.3247 851.235 76.3427 851.026 75.3617 850.818C74.6057 854.128 73.8496 857.438 73.0936 860.748C74.1946 860.981 75.2957 861.214 76.3967 861.447C77.0337 858.112 77.6697 854.778 78.3057 851.443Z" fill="#C7631C"/>
<path d="M62.3796 1057.27C68.1886 1053.1 73.9976 1048.94 79.8066 1044.77C80.6756 1046.2 81.5436 1047.63 82.4126 1049.06C78.8096 1058.05 70.3056 1057.37 61.8686 1056.82L62.3796 1057.27Z" fill="#C7631C"/>
<path d="M61.8686 1056.82C66.9426 1066.76 60.5956 1068.57 51.1346 1067.75C54.9046 1064.27 58.6746 1060.8 62.4126 1057.3C62.3796 1057.27 61.8686 1056.82 61.8686 1056.82Z" fill="#C7631C"/>
<path d="M47.6787 1075.33C44.3717 1077.86 41.0657 1080.39 37.7597 1082.92C37.2777 1082.4 36.7947 1081.87 36.3127 1081.35C39.0707 1078.35 41.8287 1075.36 44.5877 1072.37C45.6167 1073.35 46.6477 1074.34 47.6787 1075.33Z" fill="#C7631C"/>
</svg>
