<?xml version="1.0" encoding="utf-8"?>
<!-- Designed by Vexels.com - 2020 All Rights Reserved - https://vexels.com/terms-and-conditions/  -->
<svg version="1.1" id="Capa_1" xmlns="http://www.w3.org/2000/svg" xmlns:xlink="http://www.w3.org/1999/xlink" x="0px" y="0px" fill="#c7631c" 
	 viewBox="0 0 1200 1200" enable-background="new 0 0 1200 1200" xml:space="preserve">
<g>
	<path d="M545.599,232.711c15.649-15.077,30.089-31.722,47.195-44.907c36.869-28.417,75.11-55.055,115.431-84.34
		c-0.332,6.881-0.513,10.651-0.692,14.369c16.339-1.026,70.061-43.729,84.215-67.832c7.962,9.406,10.427,17.457,3.41,29.25
		c-5.385,9.05-7.546,20.583-9.003,31.302c-4.517,33.236-8.195,66.592-11.703,99.953c-0.499,4.744,0.189,11.142,3.042,14.394
		c6.192,7.061-12.593,8.32-2.64,16.369c3.269,2.643,2.377,11.36,2.106,17.24c-0.438,9.476-2.373,18.882-2.842,28.358
		c-0.321,6.484,3.283,17.365,0.799,18.805c-10.166,5.894-0.766,10.712-0.928,15.766c-0.457,14.344-0.324,28.804-2.2,42.984
		c-3.267,24.683-0.34,49.349-1.256,74.015c-0.948,25.55-0.211,51.162-0.211,77.34c-3.672,1.588-7.567,3.273-12.278,5.31
		c-3.485-9.514-3.641-20.059-12.74-26.715c-2.042-1.494-0.3-8.161-0.3-13.027c-23.488-19.726-33.243-47.954-41.025-76.921
		c-2.396-8.918-3.936-16.872-12.242-22.84c-3.886-2.792-5.922-9.408-6.916-14.648c-1.162-6.124-0.272-12.637-0.272-20.195
		c-3.733,1.972-7.974,2.871-9.995,5.485c-22.972,29.723-50.006,56.055-66.917,90.774c-18.406,37.788-40.927,73.564-61.325,110.399
		c-2.685,4.849-3.135,10.884-5.116,16.185c-9.433,25.25-20.947,49.901-28.189,75.754c-15.909,56.791-30.526,113.896-34.319,173.34
		c-0.703,11.014,1.885,19.153,4.143,28.861c3.588,15.427,3.771,31.639,5.537,47.503c0.443,3.984,2.275,7.967,2.001,11.847
		c-0.794,11.22,12.694,22.623-0.324,33.871c-0.594,0.513,2.449,4.384,2.593,6.764c0.391,6.476,0.134,12.992,0.134,21.843
		c-15.887-7.367-12.985-22.673-21.519-31.517c-2.948,28.879,17.15,53.887,15.83,84.708c9.426,4.294,9.523,18.247,15.09,28.89
		c3.725,7.121,6.156,14.925,9.058,22.464c0.677,1.759,1.749,3.97,1.23,5.492c-6.94,20.357,6.685,36.476,10.91,54.512
		c1.002,4.278,1.099,8.769,1.594,13.009c-14.022,6.283-21.957,3.103-28.104-11.005c-7.785-17.869-16.934-34.929-28.991-50.349
		c-1.945-2.487-3.482-5.428-4.628-8.384c-10.169-26.229-21.366-52.138-29.946-78.883c-7.975-24.856-14.136-50.418-19.233-76.04
		c-5.481-27.552-9.255-55.477-12.81-83.363c-1.282-10.06,0.083-20.484,0.502-30.731c1.024-25.047,0.856-50.243,3.726-75.083
		c2.457-21.268,3.478-42.937,14.971-62.817c6.366-11.01,6.131-25.633,10.457-38.076c5.651-16.254,12.967-31.923,19.387-47.917
		c4.752-11.839,8.335-24.233,14.007-35.598c9.907-19.848,21.297-38.95,31.548-58.634c9.953-19.113,18.392-39.056,29.043-57.754
		c17.028-29.894,35.362-59.044,53.041-88.57c1.223-2.043,1.591-4.599,3.347-9.913c-7.848,0.433-13.855,0.014-19.529,1.198
		c-38.719,8.077-77.361,16.526-116.048,24.763c-6.755,1.438-14.065,4.141-18.738-5.939c12.933-19.744,26.785-39.035,45.073-55.378
		c21.629-19.328,41.629-40.471,62.629-60.518c2.96-2.825,7.589-3.901,11.475-5.824c1.129,8.204,7.22,9.337,12.739,6.563
		c7.431-3.735,19.48-4.542,17.193-17.855C565.463,224.96,555.531,228.836,545.599,232.711z M674.935,232.052
		c-3.415,0.916-23.628,11.538-25.414,13.579c-11.208,12.802-22.417,25.605-33.445,38.561c-1.043,1.225-0.836,3.515-1.913,8.689
		c15.024-6.473,29.54-11.212,38.542-21.646c9.63-11.163,14.759-26.209,21.83-39.587c15.818-17.934,19.069-23.917,18.231-33.566
		C677.704,204.618,677.573,218.993,674.935,232.052z M676.105,143.015c-19.298,6.596-32.832,22.047-49.354,32.839
		c-28.758,18.784-40.103,29.939-43.122,41.749C616.813,193.484,648.967,171.581,676.105,143.015z M569.62,314.425
		c-7.768-3.055-14.567-5.729-21.944-8.631c-4.981,5.915-9.467,11.243-13.953,16.571c0.733,1.566,1.466,3.131,2.199,4.697
		C545.293,317.204,559.552,329.434,569.62,314.425z M728.86,344.36c-16.717,15.815-17.393,21.618-3.403,35.843
		C728.469,367.907,730.94,357.055,728.86,344.36z M472.558,747.12c-10.363,10.83-10.849,20.539-4.493,43.984
		C469.822,773.906,471.19,760.513,472.558,747.12z M755.905,461.265c0.933-14.425,1.695-26.199,2.642-40.827
		c-2.635,9.506-4.49,16.13-6.303,22.766C750.715,448.797,742.271,454.971,755.905,461.265z M731.082,261.99
		c1.657,0.507,3.313,1.013,4.97,1.52c1.326-4.718,2.653-9.436,3.979-14.153c-1.38-0.433-2.76-0.865-4.14-1.298
		C734.288,252.702,732.685,257.346,731.082,261.99z M780.066,103.665c-1.526-0.413-3.051-0.825-4.577-1.238
		c-7.775,5.937-4.756,13.551-0.671,21.491C776.567,117.168,778.317,110.417,780.066,103.665z M487.243,328.496
		c-8.709,0.029-8.709,0.029-14.95,6.287C482.742,335.23,482.742,335.23,487.243,328.496z M500.101,621.538
		c-0.707,0.093-1.415,0.186-2.122,0.279c-0.903,4.357-1.806,8.713-2.709,13.07c0.894,0.133,1.787,0.266,2.681,0.399
		C498.668,630.703,499.385,626.121,500.101,621.538z M720.977,298.559c0.981,0.208,1.963,0.417,2.944,0.625
		c0.756-3.31,1.512-6.62,2.268-9.93c-1.101-0.233-2.202-0.466-3.303-0.699C722.249,291.89,721.613,295.224,720.977,298.559z"/>
	<path d="M736.903,92.732c-5.809,4.167-11.618,8.335-17.427,12.502c-0.869-1.431-1.737-2.861-2.606-4.292
		c3.603-8.992,12.107-8.311,20.544-7.76C737.414,93.181,736.903,92.732,736.903,92.732z"/>
	<path d="M737.414,93.181c-5.074-9.935,1.273-11.746,10.734-10.928c-3.77,3.475-7.54,6.95-11.278,10.451
		C736.903,92.732,737.414,93.181,737.414,93.181z"/>
	<path d="M751.604,74.675c3.307-2.532,6.613-5.064,9.919-7.596c0.482,0.526,0.965,1.051,1.447,1.577
		c-2.758,2.993-5.516,5.986-8.275,8.978C753.666,76.648,752.635,75.661,751.604,74.675z"/>
</g>
</svg>
