<svg width="41" height="51" viewBox="0 0 41 51" fill="none" xmlns="http://www.w3.org/2000/svg">
<path d="M7.66164 28.5538L7.38264 27.9338L6.57664 26.3528L5.80164 24.7098C5.71897 24.5652 5.61564 24.3482 5.49164 24.0588L4.22064 21.4238L0.810637 14.2628H7.13464L13.8616 28.5848V35.5908H7.66164V28.5538ZM11.6606 20.8658L14.5436 14.2628H20.7436L18.3256 19.2848L17.3026 21.3928L15.3496 25.4538L14.5746 27.0658L11.6606 20.8658Z" fill="white"/>
<path d="M38.2136 19.6308C37.5096 19.5455 36.2723 19.4282 34.5016 19.2788C33.5203 19.2362 32.731 19.2148 32.1336 19.2148C31.3656 19.2148 30.6403 19.2362 29.9576 19.2788V14.3188H30.7576C32.507 14.3188 34.3203 14.4362 36.1976 14.6708C36.795 14.7562 37.467 14.8735 38.2136 15.0228V19.6308ZM32.9336 30.0948C32.9336 29.6468 32.9016 29.3268 32.8376 29.1348C32.7736 28.9215 32.667 28.7828 32.5176 28.7188C32.3683 28.6335 32.1123 28.5695 31.7496 28.5268L27.8136 28.0468C25.4883 27.7908 23.9203 27.0335 23.1096 25.7748C22.747 25.2415 22.5016 24.5908 22.3736 23.8228C22.2456 23.0548 22.1816 22.1162 22.1816 21.0068C22.1816 18.6388 22.7896 16.9322 24.0056 15.8868C24.987 15.0335 26.523 14.5322 28.6136 14.3828V20.8148C28.6136 21.0922 28.6243 21.3268 28.6456 21.5188C28.667 21.7108 28.7096 21.8602 28.7736 21.9668C28.8376 22.0948 28.9443 22.1908 29.0936 22.2548C29.243 22.2975 29.467 22.3295 29.7656 22.3508L34.1816 22.8948C35.099 23.0228 35.8456 23.1828 36.4216 23.3748C36.9976 23.5668 37.4883 23.8655 37.8936 24.2708C38.8536 25.2735 39.3336 27.0548 39.3336 29.6148C39.3336 32.3242 38.7363 34.2228 37.5416 35.3108C37.0083 35.8015 36.3576 36.1642 35.5896 36.3988C34.843 36.6122 33.9576 36.7508 32.9336 36.8148V30.0948ZM31.2376 36.8468C29.1043 36.8468 27.1203 36.7508 25.2856 36.5588C24.1976 36.4522 23.3763 36.3455 22.8216 36.2388V31.5668C24.0803 31.6735 25.5203 31.7802 27.1416 31.8868C28.1656 31.9295 28.891 31.9508 29.3176 31.9508C30.4696 31.9508 31.227 31.9188 31.5896 31.8548V36.8468H31.2376Z" fill="#F97B22"/>
</svg>
