<svg width="48" height="48" viewBox="0 0 48 48" fill="none" xmlns="http://www.w3.org/2000/svg">
<path d="M26 17H18C14.134 17 11 13.866 11 10C11 6.134 14.134 3 18 3H26V17Z" fill="#E64A19"/>
<path d="M25 31H18C14.134 31 11 27.866 11 24C11 20.134 14.134 17 18 17H25V31Z" fill="#7C4DFF"/>
<path d="M18 45C14.134 45 11 41.866 11 38C11 34.134 14.134 31 18 31H25V38C25 41.866 21.866 45 18 45Z" fill="#66BB6A"/>
<path d="M32 17H25V3H32C35.866 3 39 6.134 39 10C39 13.866 35.866 17 32 17Z" fill="#FF7043"/>
<path d="M32 31C35.866 31 39 27.866 39 24C39 20.134 35.866 17 32 17C28.134 17 25 20.134 25 24C25 27.866 28.134 31 32 31Z" fill="#29B6F6"/>
</svg>
