<svg width="48" height="48" viewBox="0 0 48 48" fill="none" xmlns="http://www.w3.org/2000/svg">
<path d="M8 5H42L38 39L25 43L11 39L8 5Z" fill="#E7A42B"/>
<path d="M38.63 8L35.25 36.71L25 39.86V8H38.63Z" fill="#F2BF22"/>
<path d="M25 21L26 23L25 25H15.79L16.64 12H25L26 14L25 16H21.03L20.7 21H25Z" fill="#FAF9F8"/>
<path d="M24.9 32.57L25 32.54L26 35L25 36.72L24.94 36.74L16.61 34.36L16.05 28H20.07L20.35 31.27L24.9 32.57Z" fill="#EBEBEB"/>
<path d="M34.07 21L32.5 34.42L25 36.72V32.54L28.83 31.36L29.57 25H25V21H34.07Z" fill="white"/>
<path d="M34.92 18H30.93L30.67 16H25V12H34.13L34.3 13.26L34.92 18Z" fill="white"/>
</svg>
